# xmcd CD database file
#
# Track frame offsets:
#	150
#	27609
#	46611
#	69510
#	86380
#	103052
#	118749
#	135663
#	154737
#	170658
#	192526
#	209833
#	232928
#	250350
#	262618
#	287803
#	305113
#	318412
#
# Disc length: 4444 seconds
#
# Revision: 1
# Processed by: cddbd v1.5.2PL0 Copyright (c) Steve Scherf et al.
# Submitted via: CDex 1.51
#
DISCID=08115a12
DTITLE=Various Artist - SF-338
DYEAR=1900
DGENRE=Blues
TTITLE0=Pharrell Williams - Marilyn Monroe
TTITLE1=Haim - If I Could Change Your Mind
TTITLE2=Dj Cassidy Ft Robin Thicke and Jessie J - Calling All Hearts
TTITLE3=Little Mix - Word Up
TTITLE4=5 Seconds Of Summer - She Looks So Perfect
TTITLE5=Vamps The - Last Night
TTITLE6=Artic Monkeys - Arabella
TTITLE7=Shakira - Empire
TTITLE8=American Authors - Best Day Of My Life
TTITLE9=George Michael - Let Her Down Easy
TTITLE10=Neon Jungle - Welcome To The Jungle
TTITLE11=Coldplay - Magic
TTITLE12=Wanted The - Glow In The Dark
TTITLE13=Avicii - Addicted To You
TTITLE14=Beyonce - Partition
TTITLE15=Jason Derulo - Stupid Love
TTITLE16=DVBBS and Borgeous Ft Tinie Tempah - Tsunami (jump)
TTITLE17=Molly - Children Of The Universe
EXTD=
EXTT0=
EXTT1=
EXTT2=
EXTT3=
EXTT4=
EXTT5=
EXTT6=
EXTT7=
EXTT8=
EXTT9=
EXTT10=
EXTT11=
EXTT12=
EXTT13=
EXTT14=
EXTT15=
EXTT16=
EXTT17=
PLAYORDER=
